/* XPM */
static const char * nlicon[] = {
"32 32 6 1",
" 	c None",
"!  c #000000",
"#  c #FF0000",
"$  c #0000FF",
"%  c #00FFFF",
"&  c #FFFFFF",
"$$$$$$$$$$$$$$$$$$$$$$$$$$$$$$$$",
"$$$$$$$$$$$$$$$$$$$$$$$$$$$$$$$$",
"$$%%%%&%%#%%&&%%&%%%%%!%%%%%%%$$",
"$$%&%&%&&#%&&%&%%%&%%%!%%$%%%$$$",
"$$%%&%%%%#&&%&%&&!%%%%!%$%%$%%$$",
"$$%%%&&&&#&&&%&%&!%%%!%%%%%%%$$$",
"$$%!&%&&&#&&&%&%%!%%!%%%$%%%%%$$",
"$$%!%%&&###&&%%&&!%!%%%%%%$%$%$$",
"$$%!!###########!!!%%%%$%%%%%%$$",
"$$%!%&&&###&&&%%%!%!%%%%%%$%%$$$",
"$$%!%&&&&#&&&&&%%!%%!%!%$%%%$%$$",
"$$%%%%&&%#%&&%&%%!%%%!!%%%%%%%$$",
"$$%%&&%&&#&%&&%%%!%%!!!%%%$%%$$$",
"$$&%%%&%%!&&%%&%%%%%%%!%$%$%%%$$",
"$$%&%&%&%!%&%&%%%%&%%%!%%%%%$%$$",
"$$%%&%&%!%&&%%%&%%%%%!!!%%%%%%$$",
"$$%%%%&!%%%%%%%%%%%%%!!!!!!!!!$$",
"$$%&%%%%!!%%&%&%%%$%%!!!%%%$%!$$",
"$$%%&%$%%%!%&%%%$%%%%%!%%%$%$!$$",
"$$%$&%%%%!%%%%%%%%%%$%!%$%%$%!$$",
"$$%%%%%%!%%%$%$%%%$%%%!%%%$%$!$$",
"$$%%$%%!%%%%%%%%%$%%%!%%%$%$%!$$",
"$$%%%%%%!!%%%%%%%%%%!%%$%%$!!!$$",
"$$%$%%$%%%!%%%$%%%$%%!!%%$%!!!$$",
"$$%%%%%%%!%%$%%%$%%%$%%!%%$%$%$$",
"$$%%%%%%!%%%%%$%%%%$%%!$%$%!!!$$",
"$$%%%$%!%%%%$%%%$%$%$!%%$%$!!!$$",
"$$$%%%%%!!%%%%$%%$%%!%%$%$%$%!$$",
"$$%%$%$%%%!%$%$%$%$%$!!%$%$%$!$$",
"$$%$%$%$%$%$%$%$%$%$%$%!%$%$%!$$",
"$$$$$$$$$$$$$$$$$$$$$$$$$$$$$$$$",
"$$$$$$$$$$$$$$$$$$$$$$$$$$$$$$$$"};
