/* XPM */
static const char * nu3w[] = {
"32 32 7 1",
" 	c None",
"!  c #000000",
"#  c #C0C0C0",
"$  c #808080",
"%  c #FF0000",
"&  c #0000FF",
"'  c #FFFFFF",
"&&&&&&&&&&&&&&&&&&&&&&&&&&&&&&&&",
"&&&&&&&&&&&&&&&&&&&&&&&&&&&&&&&&",
"&&%%%%%%%%%%%%%%%%%%%%%%%%%%%%&&",
"&&%%%%%%%%%%%%!!!!!!!%%%%%%%%%&&",
"&&%%%%%%%!!!!!!!!!!!$!%%%%%%%%&&",
"&&%%%%%!!$!!$$##'#'''!!!%%%%%%&&",
"&&%%%%%!$'''''''''''''!!!%%%%%&&",
"&&%%%%!!'''''''''''''''!!!%%%%&&",
"&&%%%%!!''''!!''!!!!''''!!!%%%&&",
"&&%%%!!''''!!######!!''''!!%%%&&",
"&&%%%!!'''!!########!!'''!!!%%&&",
"&&%%!!''''!!##!!!!##!!'''!!!%%&&",
"&&%%!!!'''!!!!!!!!!!!!''!!!!%%&&",
"&&%%!!!''''!!!!!!!!!!'''!!!!%%&&",
"&&%%!!!!'''''!!!!!!'''''!!!!%%&&",
"&&%%!!!!!''''''''''''''!!#!!%%&&",
"&&%%!!#!!!'''''''''''''!!#!!%%&&",
"&&%%!!##!!!''#'!!!!!!!!#!#!!%%&&",
"&&%%!!###!#$!!!!!!!!!!!!##!!%%&&",
"&&%%!!####$!!!!!$$$'#'!!##!!%%&&",
"&&%%!!####!!'#'#'#'#'#!!##!!%%&&",
"&&%%!!####!!#'#'#'#'#'!!##!%%%&&",
"&&%%!!!###!!'#'#'#'#'#!!#!!%%%&&",
"&&%%%!!!##!!#'#'#'#'#'!!#!%%%%&&",
"&&%%%%!!!#!!'#'#'#'#'#!!!!%%%%&&",
"&&%%%%%!!!!!#'#'#'#'#!!!!%%%%%&&",
"&&%%%%%%!!!!'#'#'!!!!!!!!%%%%%&&",
"&&%%%%%%%!!!!!!!!!!!!!!%%%%%%%&&",
"&&%%%%%%%%!!!!!!!%%%%%%%%%%%%%&&",
"&&%%%%%%%%%%%%%%%%%%%%%%%%%%%%&&",
"&&&&&&&&&&&&&&&&&&&&&&&&&&&&&&&&",
"&&&&&&&&&&&&&&&&&&&&&&&&&&&&&&&&"};
